Coordinates
nRows=6
nColumns=38

# SIMM Motion File Header:
name Coordinates
datacolumns 38
datarows 6
otherdata 1
range 1.53000000000000000000 1.53499999999999990000

Units are S.I. units (second, meters, Newtons, ...)
Angles are in degrees.

endheader
time	pelvis_tilt	pelvis_list	pelvis_rotation	pelvis_tx	pelvis_ty	pelvis_tz	hip_flexion_r	hip_adduction_r	hip_rotation_r	knee_angle_r	ankle_angle_r	subtalar_angle_r	mtp_angle_r	hip_flexion_l	hip_adduction_l	hip_rotation_l	knee_angle_l	ankle_angle_l	subtalar_angle_l	mtp_angle_l	lumbar_extension	lumbar_bending	lumbar_rotation	arm_flex_r	arm_add_r	arm_rot_r	elbow_flex_r	pro_sup_r	wrist_flex_r	wrist_dev_r	arm_flex_l	arm_add_l	arm_rot_l	elbow_flex_l	pro_sup_l	wrist_flex_l	wrist_dev_l
      1.53000000000000000000	     -0.27153921112495344000	      2.13389911319351720000	     -3.37757620547231640000	      0.85799107848440859000	      0.99596820848530199000	     -0.31629794967731373000	    -21.30996295606856000000	      0.34327644870744467000	      1.64727189399691290000	    -53.92748697697356900000	    -25.30693569326668800000	     -0.00000000000016021955	      0.00000000000017696680	     26.67665074382295700000	      2.33409215955829820000	      7.19490868818088810000	     -6.13934987902509730000	      3.36917292829711150000	     -0.00000000000004618635	     -0.00000000000000680922	    -11.03796622772568300000	     -8.71604334484571730000	      8.92468967452072090000	    -17.92893934537345800000	    -29.51901997293519400000	    -13.16056212698065600000	    109.51430168537058000000	     78.72371790719012100000	     -0.00000000000000030378	      0.00000000000000040094	    -43.83376294368721900000	    -16.01329174727886700000	    -20.27536751865404300000	     98.55000948337833200000	     98.78841392476800800000	     -0.00000000000000791735	      0.00000000000000047999
      1.53099999999999990000	     -0.19043578248424536000	      2.13138093678408190000	     -3.35437701500130410000	      0.85795140221639477000	      0.99587677086668580000	     -0.31636601838537620000	    -21.10848942798757800000	      0.34448932026051077000	      1.60865430091960390000	    -54.69069013163312600000	    -25.33462756057604900000	     -0.00000000000016116273	      0.00000000000017799180	     26.52490573398729300000	      2.36806847772033580000	      7.18857999373640770000	     -6.16187625248290690000	      3.35937292897370380000	     -0.00000000000004636677	     -0.00000000000000676795	    -11.18932914636835300000	     -8.72638614876831830000	      8.82925966730826770000	    -17.97739249909698600000	    -29.51209480889412300000	    -13.08570059979506100000	    109.42914119862847000000	     78.66344418999517500000	     -0.00000000000000030187	      0.00000000000000042012	    -43.67598979170283300000	    -16.06694362078900400000	    -20.23446712297143400000	     98.59357073823704800000	     98.73550728665958300000	     -0.00000000000000803261	      0.00000000000000049757
      1.53200000000000000000	     -0.10965074895844261000	      2.13365482896097540000	     -3.32995691536681630000	      0.85790753611036774000	      0.99577623790711212000	     -0.31643820744626122000	    -20.90380993782808600000	      0.33925130132860176000	      1.56320025874049650000	    -55.45275144668850200000	    -25.36802163421044700000	     -0.00000000000016209984	      0.00000000000017901741	     26.38010204231878900000	      2.40883692664338560000	      7.17738200243907890000	     -6.21082992401795410000	      3.34327136750878620000	     -0.00000000000004654922	     -0.00000000000000672128	    -11.34059521471128000000	     -8.74158094534500480000	      8.73116150125610350000	    -18.02638892142594100000	    -29.50344501806095800000	    -13.01104422380337900000	    109.34111615971047000000	     78.60361310309365000000	     -0.00000000000000029948	      0.00000000000000043518	    -43.51502427357709000000	    -16.12454755520816700000	    -20.19078272238117200000	     98.63612210669217000000	     98.68277052518057200000	     -0.00000000000000814769	      0.00000000000000051491
      1.53299999999999990000	     -0.02929545228175600000	      2.14066467023541350000	     -3.30438716482519770000	      0.85785982466546762000	      0.99566640919432436000	     -0.31651444502430198000	    -20.69594067693386200000	      0.32762272266422343000	      1.51133901214281740000	    -56.21338239629572800000	    -25.40641781023250100000	     -0.00000000000016303533	      0.00000000000018004198	     26.24216468652571900000	      2.45630916019512660000	      7.16146301867161570000	     -6.28571856985858890000	      3.32068232425440610000	     -0.00000000000004673349	     -0.00000000000000667574	    -11.49156354536081700000	     -8.76153110198824160000	      8.63049458921746650000	    -18.07599367735253900000	    -29.49308265423522000000	    -12.93669681418153400000	    109.25021821868813000000	     78.54436191521983800000	     -0.00000000000000029671	      0.00000000000000045069	    -43.35092303272495700000	    -16.18605758815812500000	    -20.14433982422044200000	     98.67762613132474300000	     98.63023736534906000000	     -0.00000000000000826251	      0.00000000000000053308
      1.53400000000000000000	      0.05052062383937101800	      2.15234202146323380000	     -3.27773849661182750000	      0.85780861167792366000	      0.99554708185999585000	     -0.31659465580887758000	    -20.48489821300506000000	      0.30968619579355289000	      1.45351416041820800000	    -56.97230478278007800000	    -25.44908222021300400000	     -0.00000000000016397051	      0.00000000000018106410	     26.11100509276176900000	      2.51038116164300140000	      7.14098958208526820000	     -6.38601425501634260000	      3.29146001852511370000	     -0.00000000000004691988	     -0.00000000000000663265	    -11.64203914216171000000	     -8.78612823004223920000	      8.52735611471390700000	    -18.12626913712692200000	    -29.48102619970089900000	    -12.86275688966512700000	    109.15643997869873000000	     78.48581870282257000000	     -0.00000000000000029476	      0.00000000000000046707	    -43.18374386778996400000	    -16.25142058854386200000	    -20.09516874297867500000	     98.71804957522168400000	     98.57793564732848800000	     -0.00000000000000837798	      0.00000000000000055195
      1.53499999999999990000	      0.12968879588081755000	      2.16860693386965850000	     -3.25008121132325020000	      0.85775423810249796000	      0.99541804950312007000	     -0.31667876085364077000	    -20.27069743355843600000	      0.28554526678124770000	      1.39018127109151310000	    -57.72925173541556600000	    -25.49525306142623300000	     -0.00000000000016490388	      0.00000000000018208668	     25.98652357076293700000	      2.57093400415485050000	      7.11614487263497700000	     -6.51115617589716320000	      3.25548977821024140000	     -0.00000000000004710648	     -0.00000000000000658607	    -11.79183177455844800000	     -8.81525322897017820000	      8.42184113805466870000	    -18.17727474174911600000	    -29.46730009173876800000	    -12.78931741908386700000	    109.05977460680620000000	     78.42810261533897200000	     -0.00000000000000029423	      0.00000000000000048508	    -43.01354537215662800000	    -16.32057653860436400000	    -20.04330449044462600000	     98.75736288702627500000	     98.52588754809191600000	     -0.00000000000000849354	      0.00000000000000057128
